<svg width="200" height="504" viewBox="0 0 200 504" fill="none" xmlns="http://www.w3.org/2000/svg">
<path d="M100.84 504C30.606 504 6.97701 485.496 4.51601 483.387C1.82071 481.078 0.269897 477.707 0.269897 474.164V232.254C0.269897 200.07 10.8359 177.871 21.0629 156.402C32.7149 131.929 44.7619 106.617 44.7619 61.9963C44.7619 55.2932 50.1994 49.8513 56.9029 49.8513H143.094C149.797 49.8513 155.235 55.2927 155.235 61.9963C155.235 106.621 167.286 131.93 178.938 156.402C189.157 177.871 199.727 200.07 199.727 232.254V474.164C199.727 477.535 198.332 480.754 195.867 483.051C193.571 485.196 171.356 504 100.841 504H100.84ZM24.559 467.305C33.3012 471.582 55.84 479.707 100.84 479.707C145.567 479.707 167.199 471.684 175.442 467.5V232.24C175.442 205.541 166.907 187.603 157.008 166.834C145.82 143.326 133.254 116.943 131.227 74.127H68.77C66.7466 116.943 54.188 143.322 42.993 166.834C33.1024 187.604 24.559 205.541 24.559 232.24V467.305Z" fill="black"/>
<path d="M150.64 24.293H49.36C42.6569 24.293 37.219 18.8516 37.219 12.148C37.2112 5.4371 42.6526 0 49.36 0H150.64C157.347 0 162.785 5.4375 162.785 12.145C162.785 18.8481 157.348 24.293 150.64 24.293V24.293Z" fill="black"/>
</svg>
